<?xml version="1.0" standalone="no"?>
<!DOCTYPE svg PUBLIC "-//W3C//DTD SVG 20010904//EN"
 "http://www.w3.org/TR/2001/REC-SVG-20010904/DTD/svg10.dtd">
<svg version="1.0" xmlns="http://www.w3.org/2000/svg"
 width="400.000000pt" height="400.000000pt" viewBox="0 0 400.000000 400.000000"
 preserveAspectRatio="xMidYMid meet">

<g transform="translate(0.000000,400.000000) scale(0.100000,-0.100000)"
fill="#000000" stroke="none">
<path d="M1792 3989 c-128 -11 -325 -56 -477 -109 -69 -23 -316 -145 -391
-193 -213 -134 -477 -399 -610 -609 -49 -77 -170 -323 -194 -393 -157 -455
-157 -915 0 -1370 24 -70 145 -316 194 -393 133 -210 397 -475 610 -609 75
-48 322 -170 391 -193 418 -144 843 -156 1260 -36 140 41 369 146 503 230 210
133 475 397 609 610 48 75 170 322 193 391 157 455 157 915 0 1370 -24 70
-145 316 -194 393 -133 210 -397 475 -610 609 -75 48 -322 170 -391 193 -296
102 -581 137 -893 109z m-497 -1313 c0 -28 -3 -30 -63 -44 -49 -10 -72 -22
-104 -52 -47 -45 -47 -48 8 -168 19 -42 39 -86 44 -97 4 -11 17 -40 28 -65 11
-25 33 -74 47 -110 15 -36 59 -137 97 -225 38 -88 77 -176 85 -195 8 -19 24
-53 34 -76 10 -22 19 -43 19 -47 0 -4 16 -42 36 -84 44 -97 45 -100 89 -203
20 -47 40 -88 43 -92 4 -4 32 41 63 100 31 59 76 145 101 192 146 276 168 321
168 337 0 10 -18 55 -40 101 -22 46 -40 85 -40 87 0 2 -18 43 -41 92 -22 48
-47 104 -56 123 -23 52 -46 104 -101 220 -61 130 -83 149 -191 163 -101 13
-101 13 -101 42 l0 25 320 0 320 0 0 -24 c0 -25 -6 -29 -68 -41 -38 -8 -72
-40 -72 -68 0 -11 13 -47 29 -81 16 -33 39 -83 51 -111 12 -27 32 -72 45 -100
13 -27 40 -85 59 -128 20 -43 41 -75 46 -72 6 3 10 10 10 14 0 5 37 87 83 182
46 96 94 197 106 226 40 89 13 128 -97 139 -60 7 -62 8 -62 35 l0 29 275 0
275 0 0 -24 c0 -21 -8 -26 -64 -40 -94 -23 -170 -79 -209 -151 -19 -35 -227
-468 -243 -505 -9 -20 -4 -39 29 -115 21 -49 51 -119 67 -155 15 -36 50 -114
77 -175 65 -143 87 -193 104 -232 8 -18 17 -33 20 -33 4 0 23 37 42 83 69 161
139 323 163 374 13 28 24 54 24 57 0 2 14 35 31 73 17 37 37 82 45 100 8 17
14 34 14 37 0 3 15 38 34 78 19 40 59 132 89 203 31 72 67 155 81 186 20 47
22 60 13 79 -20 38 -79 78 -137 93 -52 13 -55 16 -58 47 l-4 33 123 -6 c67 -4
196 -7 286 -7 l163 0 0 -25 c0 -25 -4 -27 -103 -51 -45 -10 -115 -88 -148
-162 -17 -37 -34 -76 -39 -87 -42 -94 -65 -147 -82 -190 -11 -27 -23 -54 -27
-60 -5 -5 -13 -24 -19 -41 -8 -25 -136 -321 -234 -544 -11 -25 -23 -54 -28
-65 -5 -11 -17 -40 -28 -65 -11 -25 -33 -76 -50 -115 -16 -38 -64 -150 -107
-248 -77 -175 -78 -177 -109 -177 -28 0 -34 5 -53 48 -37 83 -59 135 -102 237
-23 55 -46 109 -51 120 -5 11 -28 65 -50 120 -23 55 -50 118 -60 140 -28 61
-47 106 -65 150 -19 47 -6 63 -111 -140 -157 -303 -189 -366 -266 -518 l-80
-158 -35 3 c-42 4 -35 -9 -163 288 -56 129 -119 273 -140 320 -20 47 -41 96
-45 110 -4 14 -11 30 -15 35 -4 6 -20 39 -35 75 -32 76 -58 135 -91 207 -13
28 -24 54 -24 57 0 2 -14 35 -31 73 -31 71 -38 85 -63 143 -100 234 -148 306
-267 400 -49 40 -90 60 -119 60 -16 0 -20 7 -20 35 l0 35 363 -2 362 -3 0 -29z"/>
</g>
</svg>
